# xmcd CD database file
#
# Track frame offsets:
#	150
#	31410
#	64312
#	99246
#	130116
#	150950
#	182832
#
# Disc length: 2718 seconds
#
# Revision: 0
# Processed by: cddbd v1.5.2PL0 Copyright (c) Steve Scherf et al.
# Submitted via: CDex 1.70
#
DISCID=500a9c07
DTITLE=Larry Epstein - myTunes!
DYEAR=2005
DGENRE=Jazz
TTITLE0=Rat Race
TTITLE1=Passeggiata
TTITLE2=Oh, Waht Could Have Been
TTITLE3=It's About Time
TTITLE4=Blue Waltz
TTITLE5=A Change Of Mood
TTITLE6=From THen Till Now
EXTD=YEAR: 2005
EXTT0=
EXTT1=
EXTT2=
EXTT3=
EXTT4=
EXTT5=
EXTT6=
PLAYORDER=
